# xmcd CD database file
#
# Track frame offsets:
#	150
#	11541
#	21762
#	34462
#	46340
#	56936
#	70818
#	85460
#	98639
#	113738
#	128363
#	139432
#	151669
#	166869
#	180548
#	197487
#	210100
#	221894
#	241155
#	249746
#	258629
#	272446
#	283085
#	293687
#
# Disc length: 4077 seconds
#
# Revision: 1
# Processed by: cddbd v1.5.2PL0 Copyright (c) Steve Scherf et al.
# Submitted via: CDex 1.51
#
DISCID=550feb18
DTITLE=Lynn Anderson - Reflections - CD 1 von 2
DYEAR=2006
DGENRE=Country
TTITLE0=Listen To A Country Song
TTITLE1=Fool Me
TTITLE2=Top Of The World
TTITLE3=Rodeo Cowboy
TTITLE4=Silver Threads And Golden Needles
TTITLE5=Cry
TTITLE6=Gone At Last
TTITLE7=Danny's Song
TTITLE8=Faithless Love
TTITLE9=We've Only Just Begun
TTITLE10=Someday Soon
TTITLE11=Stand By Your Man
TTITLE12=I Was Country When Country Wasn't Cool
TTITLE13=Talking In Your Sleep
TTITLE14=Blue Bayou
TTITLE15=It Must Be Love
TTITLE16=You Don't Have To Say You Love Me
TTITLE17=Love Has No Pride
TTITLE18=Ride Ride Ride
TTITLE19=Rocky Top
TTITLE20=Paradise
TTITLE21=Lie A Little
TTITLE22=Heartbreak Hotel
TTITLE23=Love Of The Common People
EXTD=YEAR: 2006
EXTT0=
EXTT1=
EXTT2=
EXTT3=
EXTT4=
EXTT5=
EXTT6=
EXTT7=
EXTT8=
EXTT9=
EXTT10=
EXTT11=
EXTT12=
EXTT13=
EXTT14=
EXTT15=
EXTT16=
EXTT17=
EXTT18=
EXTT19=
EXTT20=
EXTT21=
EXTT22=
EXTT23=
PLAYORDER=
